<svg height="512" viewBox="0 0 58 60" width="512" xmlns="http://www.w3.org/2000/svg">
  <g fill="none" fill-rule="evenodd">
    <g fill-rule="nonzero">
      <path d="m21.4 6.988 2.473-5.4c.1621292-.35856839.5194817-.5887144.913-.588h8.428c.3914991-.00024872.7471364.22798444.91.584l2.473 5.4 8.534 4.927 5.916-.56c.3895988-.0372737.7651332.1561597.961.495l4.226 7.321c.1895441.3279324.177543.7348095-.031 1.051l-3.203 4.855v9.854l3.2 4.851c.208543.3161905.2205441.7230676.031 1.051l-4.223 7.321c-.1945011.3407663-.5703151.536299-.961.5l-5.916-.56-8.531 4.922-2.473 5.4c-.1628636.3560156-.5185009.5842487-.91.584h-8.431c-.3914991.0002487-.7471364-.2279844-.91-.584l-2.473-5.4-8.534-4.927-5.916.56c-.39068495.036299-.76649886-.1592337-.961-.5l-4.226-7.316c-.18864566-.3284953-.17548275-.7353842.034-1.051l3.2-4.851v-9.854l-3.2-4.851c-.20854301-.3161905-.22054414-.7230676-.031-1.051l4.223-7.321c.19586682-.3388403.57140117-.5322737.961-.495l5.916.56z" fill="#cad9fc" />
      <path d="m31.124 1.584 2.473 5.4 8.534 4.927 2.577-.244-8.108-4.679-2.473-5.4c-.1621292-.35856839-.5194817-.5887144-.913-.588l-3-.00000166c.3914991-.00024706.7471364.2279861.91.58400166z" fill="#a4c2f7" />
      <path d="m42.131 48.085-8.531 4.927-2.473 5.4c-.1628636.3560156-.5185009.5842487-.91.5840002l3-.0000002c.3914991.0002487.7471364-.2279844.91-.584l2.473-5.4 8.111-4.683z" fill="#a4c2f7" />
      <path d="m53 34.927v-9.854l3.2-4.851c.208543-.3161905.2205441-.7230676.031-1.051l-4.223-7.321c-.1958668-.3388403-.5714012-.5322737-.961-.495l-2.292.217c.1012964.0756777.1871743.1700415.253.278l4.226 7.321c.1895441.3279324.177543.7348095-.031 1.051l-3.203 4.851v9.854l3.2 4.851c.208543.3161905.2205441.7230676.031 1.051l-4.223 7.321c-.0658257.1079585-.1517036.2023223-.253.278l2.292.217c.3906849.036299.7664989-.1592337.961-.5l4.226-7.321c.1895441-.3279324.177543-.7348095-.031-1.051z" fill="#a4c2f7" />
      <path d="m29 13.82v29.24c.0028686 2.3538272-1.6573533 4.3819104-3.965379 4.8440019-2.3080256.4620916-4.6210698-.770501-5.524621-2.9440019-1.1076844.0026563-2.170911-.4355088-2.9551019-1.2178235-.7841908-.7823148-1.2249013-1.8444889-1.2248981-2.9521765-.002265-.6687533.1590909-1.3279091.47-1.92-1.5576991-.1147717-2.8852472-1.1738743-3.343187-2.667156-.4579397-1.4932817.0476309-3.1145407 1.273187-4.082844-.9642292-.966638-1.4846098-2.2897361-1.437231-3.6542441.0473787-1.3645081.6582772-2.6483256 1.687231-3.5457559-.1124076-.3969335-.1696117-.8074572-.17-1.22-.0045032-2.4452875 1.9265215-4.455851 4.37-4.55-.3731344-.5670209-.5713513-1.2312215-.57-1.91-.0001648-1.4345143.9000337-2.7147966 2.25-3.2l.01-.01c9.13-6.69 9.13-.21 9.13-.21z" fill="#e8edfc" />
      <path d="m24.686 11.313c.8186556.5731148 1.3084949 1.5076866 1.314 2.507v29.24c-.0041738 2.1557393-1.4109628 4.0578023-3.471 4.693 1.5038149.4948559 3.1537913.2374162 4.4353768-.6920353 1.2815855-.9294516 2.0388448-2.417825 2.0356232-4.0009647v-29.24s0-3.928-4.314-2.507z" fill="#cad9fc" />
      <path d="m45.71 35.09c.0006736 1.9848605-1.5305276 3.6338465-3.51 3.78.3109091.5920909.472265 1.2512467.47 1.92.0000032 1.1076876-.4407073 2.1698617-1.2248981 2.9521765-.7841909.7823147-1.8474175 1.2204798-2.9551019 1.2178235-.9035512 2.1735009-3.2165954 3.4060935-5.524621 2.9440019-2.3080257-.4620915-3.9682476-2.4901747-3.965379-4.8440019v-29.24s0-6.48 9.13.21l.01.01c1.3499663.4852034 2.2501648 1.7654857 2.25 3.2.0013513.6787785-.1968656 1.3429791-.57 1.91 2.4434785.094149 4.3745032 2.1047125 4.37 4.55-.0003883.4125428-.0575924.8230665-.17 1.22 1.0289538.8974303 1.6398523 2.1812478 1.687231 3.5457559.0473788 1.364508-.4730018 2.6876061-1.437231 3.6542441.9110211.7160134 1.4420598 1.8112807 1.44 2.97z" fill="#e8edfc" />
      <path d="m44.27 32.12c.9642292-.966638 1.4846098-2.2897361 1.437231-3.6542441-.0473787-1.3645081-.6582772-2.6483256-1.687231-3.5457559.1124076-.3969335.1696117-.8074572.17-1.22.0045032-2.4452875-1.9265215-4.455851-4.37-4.55.3731344-.5670209.5713513-1.2312215.57-1.91.0001648-1.4345143-.9000337-2.7147966-2.25-3.2l-.01-.01c-4.349-3.187-6.624-3.383-7.816-2.717 1.7342406.6553171 3.3582805 1.5715373 4.816 2.717l.01.01c1.3499663.4852034 2.2501648 1.7654857 2.25 3.2.0013513.6787785-.1968656 1.3429791-.57 1.91 2.4434785.094149 4.3745032 2.1047125 4.37 4.55-.0003883.4125428-.0575924.8230665-.17 1.22 1.0289538.8974303 1.6398523 2.1812478 1.687231 3.5457559.0473788 1.364508-.4730018 2.6876061-1.437231 3.6542441 1.2255561.9683033 1.7311267 2.5895623 1.273187 4.082844-.4579398 1.4932817-1.7854879 2.5523843-3.343187 2.667156.3109091.5920909.472265 1.2512467.47 1.92.0000032 1.1076876-.4407073 2.1698617-1.2248981 2.9521765-.7841909.7823147-1.8474175 1.2204798-2.9551019 1.2178235-.5503847 1.3270567-1.6532115 2.3473267-3.019 2.793 2.4293027.8082612 5.0677323-.4160507 6.019-2.793 1.1076844.0026563 2.170911-.4355088 2.9551019-1.2178235.7841908-.7823148 1.2249013-1.8444889 1.2248981-2.9521765.002265-.6687533-.1590909-1.3279091-.47-1.92 1.5576991-.1147717 2.8852472-1.1738743 3.343187-2.667156.4579397-1.4932817-.0476309-3.1145407-1.273187-4.082844z" fill="#cad9fc" />
      <path d="m51.755 11.572c-.1990437-.1611957-.4528148-.2389758-.708-.217l-3.339.316.423.244z" fill="#fff" />
      <path d="m8.992 48.15-4.226-7.321c-.18864566-.3284953-.17548275-.7353842.034-1.051l3.2-4.851v-9.854l-3.2-4.851c-.20854301-.3161905-.22054414-.7230676-.031-1.051l4.223-7.321c.06582574-.1079585.15170362-.2023223.253-.278l-2.292-.217c-.38959883-.0372737-.76513318.1561597-.961.495l-4.226 7.321c-.18864566.3284953-.17548275.7353842.034 1.051l3.2 4.851v9.854l-3.2 4.851c-.20854301.3161905-.22054414.7230676-.031 1.051l4.223 7.321c.19450114.3407663.57031505.536299.961.5l2.292-.217c-.10178142-.0771492-.18769054-.1732451-.253-.283z" fill="#fff" />
      <path d="m48.131 48.085-.423.244 3.339.316c.2551852.0219758.5089563-.0558043.708-.217z" fill="#fff" />
      <path d="m-.008 14.315h8v2h-8z" fill="#fff" transform="matrix(.5 -.866 .866 .5 -11.267 11.115)" />
      <g fill="#428dff">
        <path d="m14.466 39.6c-.3355654 1.4290428-.048819 2.9333587.7889117 4.1387527s2.1477118 1.9985773 3.6040883 2.1822473c.9983274 1.8193798 2.874595 2.9850241 4.9479716 3.073962 2.0733765.0889378 4.0425695-.9117548 5.1930284-2.638962 1.1501266 1.7273932 3.1190984 2.728444 5.1924631 2.6399155 2.0733647-.0885284 3.9498402-1.253772 4.9485369-3.0729155 1.4568173-.1835941 2.7671868-.9770658 3.6049828-2.1829352.8377961-1.2058695 1.1242312-2.7107351.7880172-4.1400648 1.9003081-.6887119 3.1683647-2.4907502 3.175-4.512.002209-1.1084725-.3825927-2.1829464-1.088-3.038 1.6238249-2.2915782 1.4149991-5.408513-.5-7.463.447046-2.7506623-1.2127609-5.406952-3.881-6.211.5905077-2.1497938-.5327389-4.3993042-2.606-5.219-3.912-2.849-6.759-3.766-8.693-2.783-.3567624.1803041-.6760757.4266606-.941.726-.2638576-.2997562-.5821419-.5467828-.938-.728-1.936-.982-4.784-.066-8.7 2.786-2.0697896.8214612-3.1899792 3.0687338-2.6 5.216-2.6682391.804048-4.328046 3.4603377-3.881 6.211-1.9134963 2.0551374-2.1222488 5.1709777-.5 7.463-.7057781.8548428-1.0906294 1.929455-1.088 3.038.0054908 2.0214702 1.2727937 3.8243713 3.173 4.514zm16.377-27.44c.428-.217 1.609-.436 4.266 1.079-.9515757.4417227-1.7148096 1.2077925-2.153 2.161-.1540005.3258055-.1207911.709271.0869282 1.0037503.2077194.2944793.5578164.4544192.9164057.4186548.3585893-.0357643.6702005-.2617005.8156661-.5914051.5407123-1.1248322 1.8373034-1.6674414 3.018-1.263l.014.006c.008 0 .014.007.021.009.6208242.2197257 1.1208991.6899716 1.378344 1.2961268.2574448.6061552.2486126 1.292543-.024344 1.8918732-2.0675048.1621047-3.8714172 1.4651661-4.675 3.377-.2140103.5092065.0252935 1.0954896.5345 1.3095.5092065.2140103 1.0954896-.0252935 1.3095-.5345.6538602-1.5648215 2.3215286-2.4503865 3.9840994-2.1156358 1.6625707.3347507 2.8575779 1.7967017 2.8549006 3.4926358-.0006358.3234255-.0446961.6453013-.131.957-.1017345.3699375.0171571.7654659.306 1.018 1.2379783 1.0787006 1.6757699 2.8128468 1.098149 4.3499021-.577621 1.5370554-2.0491465 2.5536858-3.691149 2.5500979-.5522847 0-1 .4477153-1 1s.4477153 1 1 1c1.22379.0013514 2.4177892-.3774298 3.417-1.084.3353791.466343.5171344 1.0255901.52 1.6-.0033884 1.4593486-1.127077 2.6713829-2.582 2.785-.337032.0249448-.6386629.2184313-.8018621.5143685s-.1658842.654282-.0071379.9526315c.2337986.445293.3549949.941065.353 1.444-.0016539 1.7539231-1.4230769 3.1753461-3.177 3.177-.4038222.0001345-.7679323.2431376-.923.616-.7220532 1.7324327-2.5666425 2.7142776-4.406992 2.3457702-1.8403494-.3685075-3.1646757-1.9848889-3.164008-3.8617702v-17.848c.0011025-.7057531.5732463-1.2774495 1.279-1.278.5522847 0 1-.4477153 1-1s-.4477153-1-1-1c-.4396833-.0002453-.8748275.0888929-1.279.262v-8.377c0-.012.036-1.254.843-1.663zm-16.208 13.512c.2888429-.2525341.4077345-.6480625.306-1.018-.0863039-.3116987-.1303642-.6335745-.131-.957-.0002882-1.6949922 1.1954755-3.1547212 2.8573556-3.4881178s3.3281431.5521693 3.9816444 2.1161178c.2140104.5092065.8002935.7485103 1.3095.5345.5092065-.2140104.7485103-.8002935.5345-1.3095-.8035828-1.9118339-2.6074952-3.2148953-4.675-3.377-.2773078-.6091335-.2820942-1.3075357-.0131612-1.9204127.2689329-.612877.7861345-1.0822288 1.4221612-1.2905873.2560823-.0942724.5271267-.1413663.8-.139.9456496.0004222 1.804646.5509608 2.2 1.41.1454656.3297046.4570768.5556408.8156661.5914051.3585893.0357644.7086863-.1241755.9164057-.4186548.2077193-.2944793.2409287-.6779448.0869282-1.0037503-.4378507-.9536836-1.2011512-1.7201748-2.153-2.162 2.648-1.511 3.831-1.3 4.258-1.084.824.41.851 1.661.851 1.667v4.577c-.4044649-.1719428-.8395048-.2603793-1.279-.26-.5522847 0-1 .4477153-1 1s.4477153 1 1 1c.7049727.0016514 1.2759004.5730262 1.277 1.278v21.646c.0001907 1.8766932-1.3242868 3.492631-3.1644985 3.8608678-1.8402117.3682367-3.6845205-.6136089-4.4065015-2.3458678-.1550677-.3728624-.5191778-.6158655-.923-.616-1.7539231-.0016539-3.1753461-1.4230769-3.177-3.177-.0019949-.502935.1192014-.998707.353-1.444.1587463-.2983495.1560613-.6566943-.0071379-.9526315s-.4648301-.4894237-.8018621-.5143685c-1.454923-.1136171-2.5786116-1.3256514-2.582-2.785.0029982-.5743886.1847407-1.1335963.52-1.6.9990024.7069893 2.1931387 1.0858139 3.417 1.084.5522847 0 1-.4477153 1-1s-.4477153-1-1-1c-1.6403258.000245-3.1089196-1.0165697-3.6859493-2.5520519-.5770298-1.5354821-.1415656-3.2678363 1.0929493-4.3479481z" />
        <path d="m20.106 29c-.2508593.489295-.662124.8776136-1.165 1.1-.3285057.140584-.5570569.4457447-.5995604.800531s.1074978.7052977.3935.9195.6645547.259553.9930604.118969c1.1700826-.5035093 2.065747-1.4877559 2.457-2.7 1.4338646-.0898027 2.7853992-.7008385 3.8-1.718.3923983-.3912937.3932937-1.0266017.002-1.419s-1.0266017-.3932937-1.419-.002c-.7617395.7619594-1.8024678 1.1784462-2.87957 1.152369s-2.0964562-.4924397-2.82043-1.290369c-.2389873-.2693948-.6043664-.3894824-.9565738-.3143931s-.6368375.3337565-.7451702.6771986-.0236339.7186075.221744.9821945c.7341038.8023032 1.6742086 1.3878798 2.718 1.693z" />
        <path d="m25.419 32.679c-.2278459-.0004133-.4555361.0119394-.682.037-1.8467669.1469107-3.4376681 1.3586536-4.07 3.1-.6316907 1.8104811-.1645976 3.822874 1.2 5.17.596136.5926551.9346039 1.3964266.942 2.237 0 .5522847.4477153 1 1 1s1-.4477153 1-1c-.0058026-1.3622937-.5479266-2.6674868-1.509-3.633-.8281199-.8015565-1.1197981-2.0087694-.749-3.1.3737195-1.0203559 1.315478-1.7231432 2.4-1.791.1547902-.0164653.3103367-.0248101.466-.025.5522847 0 1-.4477153 1-1s-.4477153-1-1-1z" />
        <path d="m32.813 32.716c-.2271356-.0250312-.4554897-.0373837-.684-.037-.5522847 0-1 .4477153-1 1s.4477153 1 1 1c.1563279.0002167.3125387.0085613.468.025 1.0856381.0667024 2.0288463.7696928 2.403 1.791.3697807 1.0912764.0782357 2.2979382-.749 3.1-.9644879.9657678-1.508917 2.2731163-1.515 3.638 0 .5522847.4477153 1 1 1s1-.4477153 1-1c.0073961-.8405734.345864-1.6443449.942-2.237 1.3652635-1.3467535 1.8324527-3.35956 1.2-5.17-.627803-1.7441791-2.2173312-2.9602757-4.065-3.11z" />
        <path d="m32.018 27.516c1.0146008 1.0171615 2.3661354 1.6281973 3.8 1.718.391253 1.2122441 1.2869174 2.1964907 2.457 2.7.3285057.140584.7070582.0952333.9930604-.118969s.4360035-.5647137.3935-.9195c-.0425036-.3547863-.2710547-.659947-.5995604-.800531-.5031895-.220553-.9154755-.6070711-1.168-1.095 1.0442171-.3072509 1.9840392-.8952882 2.717-1.7.2453779-.263587.3300767-.6387524.221744-.9821945s-.3929628-.6021093-.7451702-.6771986-.7175865.0449983-.9565738.3143931c-.7239738.7979293-1.7433278 1.2642918-2.82043 1.290369s-2.1178305-.3904096-2.87957-1.152369c-.2527654-.2525868-.6210837-.3511379-.966213-.25853s-.6146361.3623054-.707.7075c-.0923638.3451947.0064476.7134432.259213.96603z" />
        <path d="m2.633 19.67s.004.007 0 0z" />
        <path d="m4.013 16.314c-.55228474.0030376-1.00246242-.4422153-1.00549999-.9945-.00303756-.5522847.44221525-1.0024624.99449999-1.0055h.011c.55228475 0 1 .4477153 1 1s-.44771525 1-1 1z" />
        <path d="m57.036 20.773c.4195348-.6305922.4447324-1.4446686.065-2.1l-4.228-7.322c-.392656-.6761961-1.1424446-1.0626046-1.921-.99l-5.6.53-7.979-4.61-2.34-5.113c-.3255767-.71170173-1.0363637-1.16810596-1.819-1.168h-8.428c-.7826363-.00010596-1.4934233.45629827-1.819 1.168l-2.34 5.113-7.981 4.608-5.6-.53c-.77864169-.0718067-1.52804333.3153841-1.92.992-.18148438.3095704-.18318331.6926495-.00445186 1.0038174.17873145.311168.51048847.5027136.86933356.5019247s.68975672-.1937913.8671183-.5057421l5.917.561c.2067307.0199827.4145148-.0254919.594-.13l8.531-4.928c.1797408-.10390624.3226851-.26117992.409-.45l2.477-5.404h8.428l2.473 5.4c.0865781.18896488.2298873.34625547.41.45l8.534 4.927c.1793603.1048284.387249.1503259.594.13l5.917-.561 4.225 7.321-3.2 4.851c-.1073458.163744-.1646803.3552064-.165.551v9.854c.0003197.1957936.0576542.387256.165.551l3.2 4.851-4.225 7.325-5.917-.561c-.206694-.0193744-.414294.02606-.594.13l-8.531 4.927c-.1801127.1037445-.3234219.2610351-.41.45l-2.476 5.404h-8.428l-2.474-5.4c-.0863149-.1888201-.2292592-.3460938-.409-.45l-8.534-4.927c-.179706-.10394-.387306-.1493744-.594-.13l-5.916.561-4.227-7.325 3.2-4.851c.1088328-.1632126.16725722-.3548308.168-.551v-9.854c-.0048033-.1943886-.06785857-.3828576-.181-.541l.016-.01-2.035-3.077-1.012-1.538-.127-.192-.029-.044.227-.393c.17863279-.3095706.17854234-.6909252-.0002373-1.000411-.17877963-.3094859-.50908757-.5000848-.8665-.5s-.68762991.1908404-.8662627.500411l-.234.406c-.30925112.5437821-.34625322 1.2009395-.1 1.776.0559886.1246751.12291712.2441425.2.357l.127.192 1.015 1.538 1.866 2.826v9.254l-3.037 4.6c-.41984897.6306777-.44428729 1.4452883-.063 2.1l4.226 7.32c.39318475.6758408 1.14230988 1.0626873 1.921.992l5.6-.53 7.981 4.608 2.34 5.113c.3248367.7121534 1.0352606 1.1693569 1.818 1.17h8.428c.7826363.000106 1.4934233-.4562983 1.819-1.168l2.34-5.113 7.981-4.608 5.6.53c.7787714.0724082 1.528615-.314419 1.921-.991l4.225-7.32c.380331-.6549543.3559089-1.4690229-.063-2.1l-3.037-4.603v-9.254z" />
      </g>
    </g>
  </g>
</svg>
