<svg version="1" xmlns="http://www.w3.org/2000/svg" width="933.333" height="933.333" viewBox="0 0 700.000000 700.000000"><path d="M293.2 1.3c-1.9.6-5.4 2.9-7.8 5.1-3.9 3.6-6.1 7.8-18.7 35.4l-14.3 31.3-16 9.3c-8.7 5.1-29.7 17.2-46.5 26.9L159.3 127l-31.7-3c-17.5-1.6-33.9-3-36.5-3-9.6 0-19.7 7.7-20.8 15.9-.9 6.9 4.4 13.1 11.2 13.1 3.1 0 8.1-2.4 9.2-4.5.8-1.3 2.2-1.4 10.3-.5 44.3 4.7 62.5 6.1 64.9 5 5.2-2.4 101.7-58.3 103.5-60.1 1.1-1 8.6-16.3 16.7-34.1l14.8-32.3 37.9-.3c29.6-.2 38.1.1 38.9 1 .5.7 6.7 14 13.7 29.4 11.4 25 13.2 28.3 16 29.7 1.7.8 23.8 13.5 49.1 28.1 44 25.4 46.2 26.6 51.2 26.6 4.5 0 6.6.8 16.6 6.6l11.5 6.5 26.3-2.5c14.5-1.4 26.4-2.4 26.5-2.3.1.1 10.5 18 23 39.7 19.3 33.4 22.9 40.1 22.9 43.5 0 3.6-2.2 7.4-19.7 33.9L595 293.2v113.4l17.1 26c9.5 14.2 18.3 27.7 19.7 29.9 4.9 7.8 5 7.8-20.3 51.5-12.5 21.7-22.8 39.6-22.9 39.6 0 .1-11.1-.9-24.6-2.2-13.5-1.3-25.4-2.4-26.6-2.4-1.1 0-7.2 2.9-13.5 6.5-10.3 5.9-11.9 6.6-16.4 6.4-4.7-.3-6.1.3-23 10.3-9.9 5.7-31.9 18.5-48.8 28.2-16.9 9.8-31.4 18.8-32.2 20-.7 1.1-6.8 14.1-13.5 28.9L377.7 676l-38.6-.2-38.6-.3-14.5-31.8c-8.1-17.5-15.5-32.6-16.6-33.6-1.6-1.6-82.8-48.9-100.1-58.4l-5.2-2.8-17.3 1.6c-9.5.8-25.8 2.5-36.2 3.6-10.3 1.1-18.9 1.9-19 1.7-3.6-5-48.1-83.9-48-85.3 0-1.1 8-14.2 17.8-29 9.8-14.9 18.5-28.4 19.2-30.2 2-4.7 2-117.8.1-122.6-.8-1.8-9.6-15.7-19.7-31l-18.3-27.8 1.9-4c3.7-8.3 1.2-15.3-6.4-17.7-3.7-1.2-4.6-1.2-7.9.5-4.6 2.2-9.9 10.5-10.9 16.9-1.3 8.7-.2 10.9 19.7 41.2L58 295.5v108.8l-18.2 27.6c-10 15.2-18.7 29.2-19.4 31.1-1.7 4.6-1.7 9.9 0 14.6 2.1 6.1 51.2 90.5 54.7 94.3 4.1 4.3 10.2 7.1 15.9 7.1 2.5 0 11.5-.7 20-1.5s22.9-2.2 31.8-3l16.4-1.6 31.1 18c17.2 9.9 38.1 21.9 46.6 26.8l15.4 9 14.4 31.4c12.6 27.6 14.8 31.9 18.7 35.5 2.4 2.2 6.2 4.6 8.3 5.2 5.7 1.7 106.9 1.7 112.6 0 2.1-.6 5.9-3 8.3-5.2 3.9-3.6 6.1-7.8 18.7-35.5l14.4-31.4 15.4-8.9c8.5-5 29.4-17 46.6-26.9l31.1-18 31.6 3c17.4 1.7 33.7 3.1 36.4 3.1 5.6 0 11.6-2.6 15.8-6.7 3.2-3.3 53.3-89.5 55.2-95.2 1.5-4.3 1.5-8.8.1-13.2-.6-1.9-9.4-16-19.5-31.5l-18.4-28V295.5l18.5-28c19.9-30.3 21.6-34 19.9-42.2-.7-3.3-8.8-18.4-26.4-48.8-13.9-24.2-26.5-45.4-27.8-47.2-3.2-4.4-11.4-8.3-17.1-8.3-2.6 0-18.9 1.4-36.5 3l-31.8 3-40.2-23.2c-22-12.7-43-24.9-46.6-26.9l-6.5-3.8-14.4-31.6c-12.8-28.1-14.9-32-18.7-35.4-2.3-2-6-4.3-8.2-4.9-5.2-1.6-108.1-1.5-113 .1z"/><path d="M310.5 117.1c-15.9 2.3-36.4 11.6-59.9 27.2-7.7 5.1-16.5 10.7-19.5 12.3-16 8.6-27.2 29-25.7 46.9.4 3.8.7 7.8.9 8.8.1 1.3-1.2 2.4-4.8 3.9-13.1 5.6-24 15.2-31.7 27.9-6 9.9-8 17.5-8.4 31.1l-.3 11.8-4.5 6.4c-14.1 19.6-17.1 43.3-8.5 65.6 1.6 4.1 4 9.1 5.3 11.1l2.5 3.6-2 2.9c-14.6 21.4-14 47.3 1.4 67.3 4.5 5.8 13.7 13.2 20.1 16.1l3.9 1.8.1 13.4c.1 16.1 2.1 23.1 10 34.7 8.4 12.3 21.1 21.1 35.7 24.7 6 1.5 6.7 2 9.4 6.1 4 6.4 14.4 16.5 21.2 20.6 21.3 12.9 44.8 14 67.3 3 8-3.8 10.9-6 18.3-13.4l8.8-8.8 7.1 7.4c10.8 11.4 22.2 17.9 37 20.9 17.1 3.5 34.5.4 50-9 6.9-4.2 16.8-13.8 20.8-20.1 2.8-4.4 3.4-4.8 11.2-7 15-4.4 26.1-12.2 34.4-24.4 7.9-11.6 9.9-18.6 10-34.7l.1-13.4 3.9-1.8c6.4-2.9 15.6-10.3 20.1-16.1 15.4-20 16-45.9 1.4-67.3l-2-2.9 2.5-3.6c1.3-2 3.7-7 5.3-11.1 8.7-22.6 5.6-45.9-8.6-65.8l-4.7-6.6.3-8.1c.7-20.1-8.6-40.3-24.1-52.6-2.9-2.3-9-6-13.6-8.2-6.1-2.9-8.1-4.4-7.7-5.5.3-.8.8-4.7 1.1-8.6 1.4-18.4-9.8-38.6-26.3-47.4-3.2-1.7-12.2-7.3-19.9-12.5-30.1-20.1-56-29.4-74.1-26.8-7.7 1.2-16.7 5.1-21 9.4l-3.3 3.1-3.2-3.1c-4.4-4.3-13.4-8.3-21.1-9.4-7-1-7-1-15.2.2zm18.8 25.6c1.9 1.1 4.2 3.9 5.7 6.8 2.5 5 2.5 5.3 2.8 34.8.3 29.2.2 29.8-1.7 29.2-6-1.9-13.5-2.4-16.5-1.1-7.1 3-9.6 10.7-5.7 17.2 1.9 3.2 5.1 4.8 11.1 5.8 5.1.9 9.4 3.9 11.3 7.9 1.6 3.2 1.7 14.2 1.7 134.4 0 106-.3 131.7-1.4 135.8-4.3 16.3-16.8 28.8-33.1 33.1-10.9 2.9-24.7 1-34.7-4.9-6.2-3.6-14.1-12.4-17.7-19.6-3.6-7.1-5.6-8.3-17-10-9.3-1.4-15.8-4.9-22.1-11.8-6.6-7.2-9.3-14.5-9.4-24.8 0-6.5.5-9.2 2.7-14.2 3.1-7.2 3.2-8.4 1.2-12.7-1.9-3.9-5.5-6.1-11.5-7-10-1.5-19.9-8.7-24.8-18.1-2.3-4.3-2.7-6.2-2.7-14 0-7.5.4-9.7 2.4-13.5 1.3-2.5 2.5-4.6 2.6-4.8.1-.2 2.5 1 5.3 2.7 9.2 5.4 18.8 8.3 29.4 8.9l9.7.5 3.6-3.6c2.9-2.9 3.5-4.2 3.5-7.9 0-7.2-5-11.8-12.7-11.8-14.8 0-32.1-10.7-38.8-24.1-9.7-19-6.5-39 8.7-55.5l4.3-4.7v-15.1c0-14.8.1-15.2 3.1-21.7 7.9-16.7 26.1-26.2 44-23.2 13 2.3 23.4 9.9 30.3 22.3 4.6 8.2 9.1 10.9 15.1 9.1 4.4-1.3 7.5-4.7 8.5-9.2.9-3.8-4.4-15.1-10.4-22.6-8.7-10.8-24-19.8-38.3-22.4-6.4-1.2-6.8-1.4-7.9-4.7-1.6-4.8-.6-14.9 1.9-19.9 3.1-6 10.5-12 17-13.9 12.9-3.8 25.9 1.5 32.9 13.4 1.4 2.3 3.6 5.1 5 6.2 3.1 2.4 9.9 2.7 13.1.4 2.8-1.9 5.2-6.5 5.2-9.9 0-6.7-10.2-20.1-20.2-26.6l-5.7-3.7 5.7-3c19.2-10.2 36-13.4 44.5-8.5zm66.2.3c3.9 1.2 11.2 4.2 16.3 6.8l9.4 4.6-3.9 1.9c-5.5 2.9-16.6 14.3-19.7 20.4-3 6-3.2 9.2-1.1 13.3 2.1 4.2 5.3 6 10.3 6 3.7 0 4.9-.5 7.6-3.4 1.7-1.8 4.3-5.2 5.9-7.5 3.4-5.3 10.4-9.7 17.4-11.1 20-4.2 37.7 14.6 32.3 34.1-1 3.4-1.3 3.7-6.1 4.3-20.8 2.8-42.7 20.1-49.4 39.1-1.6 4.6-1.6 5.3-.2 8.7 1.9 4.5 5.9 7.3 10.7 7.3 5.2 0 8.4-2.6 12.2-9.7 13.4-25.2 45.6-30.3 65.8-10.4 7.6 7.5 11.3 15.8 11.8 26.5.2 4.7-.1 10.4-.6 12.5-1.7 5.9-.5 9.1 5.9 16.1 9.8 10.8 13.6 21.1 12.6 34.5-1.6 23-18.7 40.5-41.7 42.6-10.8 1.1-15 4.4-15 12.1 0 3.8.5 5 3.5 8l3.6 3.6 9.7-.6c10.9-.5 21.3-3.6 29.4-8.7 2.7-1.6 5.1-3 5.2-3 .2 0 1.4 2.4 2.7 5.2 3.2 7.2 3.3 19.2.2 26-4.6 10-14.8 17.7-25.4 19.3-6.8 1-10.6 3.7-12 8.4-1.1 3.6-.9 4.7 1 9.8 6.6 17 3.5 32.2-8.6 43.3-5.9 5.4-12.8 8.4-21.8 9.5-8.6 1.1-10.9 2.6-14.7 9.7-1.8 3.5-6 9-9.3 12.4-24.2 24.3-65.4 14.2-75.6-18.7-1.8-5.8-1.9-10.9-1.9-115.6 0-121.3-.4-114 6.5-118.3 1.8-1.1 5.4-2.3 8.1-2.7 7-.9 11.4-5.4 11.4-11.5 0-9.9-8.8-14.2-21.4-10.4l-4.7 1.4.3-52.6.3-52.7 2.5-4.5c3.6-6.4 9.4-9.3 17.5-8.6 3.3.3 9.2 1.5 13 2.6z"/><path d="M216.1 301.6c-4.4 3.7-5.8 9.1-3.6 13.8 3.2 6.6 18 17.2 31.3 22.3l2.3.8-2.3 3.5c-1.3 1.9-4.6 4.9-7.3 6.7-9 5.7-10.5 7.5-10.5 13.2 0 4.1.5 5.4 2.9 7.9 4.6 4.6 8.4 4.8 16.1 1.1 8.9-4.4 18.5-14.2 22.5-23l3-6.7 5.1-.6c11.5-1.3 24.7-7.3 34.9-15.7 6.1-5 7.5-7.4 7.5-12.7 0-4.4-2-7.6-6-9.7-5.6-2.9-9.6-1.8-16.4 4.3-5.2 4.7-15 9.1-23.2 10.4-13.4 2.2-25.9-1.8-38.5-12.3-8.4-7-12.5-7.8-17.8-3.3zM297 382.1c-12.9 1.8-24.3 8-33.2 17.8-9.8 10.8-14 22.4-14 38 .1 14.9 5.1 26.9 17 40.5 6.4 7.2 9.1 13.1 10.6 22.6 1.5 9 2.7 11.5 6.6 13.5 3.7 1.9 7.3 1.9 11 0 6.2-3.2 7.5-11.3 4-24.9-2.5-10-6.6-17.4-14.1-26.1-8.9-10.2-11.4-15.9-11.4-26.5 0-7.3.4-9.3 2.8-14.2 5-10.1 16.6-17.8 27-17.8 9.8 0 15.5-3.8 16.4-10.8 1-7.5-5-13.3-13.4-13.1-2.1.1-6.3.5-9.3 1zM471.5 300.2c-1.1.6-3.8 2.7-6 4.8-17 16-42.1 17-60.1 2.4-8.5-6.9-11.7-7.8-17.4-4.9-4.2 2.2-6 5.3-6 10.5 0 4.2.4 4.8 6.4 10.6 8.2 7.9 19.8 13.7 32.1 16.1l9 1.8 3.4 7c5.8 11.9 20.9 24.6 29.6 24.8 6.8.2 11.6-4.5 11.7-11.4.1-5.1-2-8-7.9-11.4-5.9-3.4-9.1-6.2-10.9-9.7-1.3-2.6-1.3-2.6 3.3-4.2 12-4.1 28.3-17 29.6-23.4 1.9-9.3-8.7-17.5-16.8-13zM381.2 382.6c-6.9 3.5-8.3 12.1-2.9 18 3 3.3 3.7 3.5 11.8 4.4 4.7.4 10.3 1.6 12.4 2.4 6.4 2.7 12.1 8.2 15.4 14.6 3.9 8 4.8 14.9 2.7 23.1-1.9 7.3-4 10.8-11.9 19.8-9.4 10.8-14.7 24.3-14.7 37.3 0 6 .3 7.1 2.8 9.8 5.1 5.8 14.6 4.8 18.4-1.9.9-1.4 1.8-5.5 2.2-9 .8-8.6 4-15.2 11.5-23.6 6.8-7.7 13.3-19.9 15-28.3 5.9-28.5-10.4-56.8-37.5-65.2-9.2-2.8-21.1-3.5-25.2-1.4zM52.8 168.6c-3.5 1.8-5.8 6.2-5.8 11 0 2.8.8 4.4 3.4 7 2.8 2.8 4.1 3.4 7.8 3.4 5 0 8.2-1.8 10.3-6 5.3-10.3-5.6-21-15.7-15.4z"/></svg>